<svg xmlns="http://www.w3.org/2000/svg" xmlns:xlink="http://www.w3.org/1999/xlink" width="60" zoomAndPan="magnify" viewBox="0 0 45 37.5" height="50" preserveAspectRatio="xMidYMid meet" version="1.0"><defs><clipPath id="79acf920b3"><path d="M 0.667969 7 L 33 7 L 33 35.8125 L 0.667969 35.8125 Z M 0.667969 7 " clip-rule="nonzero"/></clipPath><clipPath id="9575a1d34a"><path d="M 14 1.027344 L 44.332031 1.027344 L 44.332031 30 L 14 30 Z M 14 1.027344 " clip-rule="nonzero"/></clipPath></defs><g clip-path="url(#79acf920b3)"><path fill="#000000" d="M 1.796875 35.8125 C 1.703125 35.8125 1.609375 35.777344 1.535156 35.714844 C 1.417969 35.609375 1.375 35.445312 1.425781 35.296875 L 3.058594 30.476562 C 3.515625 29.121094 3.328125 27.664062 2.542969 26.46875 C 1.316406 24.601562 0.667969 22.492188 0.667969 20.359375 C 0.667969 16.886719 2.332031 13.625 5.347656 11.179688 C 8.339844 8.753906 12.3125 7.414062 16.535156 7.414062 C 20.757812 7.414062 24.734375 8.753906 27.726562 11.179688 C 30.742188 13.625 32.402344 16.886719 32.402344 20.359375 C 32.402344 23.832031 30.742188 27.09375 27.726562 29.539062 C 24.734375 31.96875 20.757812 33.304688 16.535156 33.304688 C 14.367188 33.304688 12.265625 32.953125 10.285156 32.261719 C 9.984375 32.15625 9.660156 32.175781 9.367188 32.308594 L 1.964844 35.777344 C 1.910156 35.800781 1.855469 35.8125 1.796875 35.8125 Z M 16.535156 8.199219 C 8.21875 8.199219 1.457031 13.652344 1.457031 20.359375 C 1.457031 22.339844 2.058594 24.304688 3.199219 26.039062 C 4.117188 27.4375 4.335938 29.144531 3.800781 30.722656 L 2.464844 34.675781 L 9.035156 31.601562 C 9.511719 31.378906 10.050781 31.351562 10.546875 31.523438 C 12.441406 32.1875 14.457031 32.523438 16.535156 32.523438 C 24.851562 32.523438 31.617188 27.066406 31.617188 20.359375 C 31.617188 13.652344 24.851562 8.199219 16.535156 8.199219 Z M 16.535156 8.199219 " fill-opacity="1" fill-rule="nonzero"/></g><g clip-path="url(#9575a1d34a)"><path fill="#000000" d="M 43.207031 29.425781 C 43.152344 29.425781 43.09375 29.414062 43.042969 29.386719 L 35.636719 25.921875 C 35.347656 25.785156 35.019531 25.769531 34.71875 25.875 C 33.25 26.390625 31.691406 26.71875 30.09375 26.851562 C 29.945312 26.863281 29.800781 26.785156 29.722656 26.65625 C 29.648438 26.527344 29.652344 26.363281 29.738281 26.238281 C 30.96875 24.449219 31.617188 22.414062 31.617188 20.359375 C 31.617188 13.652344 24.851562 8.199219 16.535156 8.199219 C 16.015625 8.199219 15.492188 8.21875 14.976562 8.261719 C 14.824219 8.273438 14.679688 8.199219 14.605469 8.070312 C 14.527344 7.9375 14.535156 7.777344 14.621094 7.652344 C 17.425781 3.566406 22.730469 1.027344 28.46875 1.027344 C 32.695312 1.027344 36.667969 2.363281 39.660156 4.792969 C 42.675781 7.238281 44.335938 10.5 44.335938 13.972656 C 44.335938 16.101562 43.6875 18.214844 42.464844 20.082031 C 41.679688 21.273438 41.492188 22.734375 41.949219 24.085938 L 43.582031 28.910156 C 43.632812 29.058594 43.585938 29.222656 43.46875 29.324219 C 43.394531 29.390625 43.304688 29.425781 43.207031 29.425781 Z M 35.121094 25.023438 C 35.410156 25.023438 35.703125 25.085938 35.972656 25.214844 L 42.542969 28.289062 L 41.203125 24.335938 C 40.667969 22.757812 40.886719 21.050781 41.804688 19.652344 C 42.949219 17.914062 43.550781 15.949219 43.550781 13.972656 C 43.550781 7.265625 36.785156 1.808594 28.46875 1.808594 C 23.308594 1.808594 18.519531 3.945312 15.757812 7.429688 C 16.019531 7.421875 16.277344 7.414062 16.535156 7.414062 C 20.761719 7.414062 24.734375 8.753906 27.726562 11.179688 C 30.742188 13.625 32.402344 16.886719 32.402344 20.359375 C 32.402344 22.3125 31.863281 24.242188 30.832031 25.984375 C 32.082031 25.828125 33.296875 25.542969 34.460938 25.136719 C 34.675781 25.0625 34.898438 25.023438 35.121094 25.023438 Z M 35.121094 25.023438 " fill-opacity="1" fill-rule="nonzero"/></g><path fill="#000000" d="M 10.074219 22.746094 C 9.011719 22.746094 8.148438 21.890625 8.148438 20.835938 C 8.148438 19.777344 9.011719 18.921875 10.074219 18.921875 C 11.132812 18.921875 11.996094 19.777344 11.996094 20.835938 C 11.996094 21.890625 11.132812 22.746094 10.074219 22.746094 Z M 10.074219 19.703125 C 9.445312 19.703125 8.9375 20.210938 8.9375 20.832031 C 8.9375 21.457031 9.445312 21.964844 10.074219 21.964844 C 10.699219 21.964844 11.207031 21.457031 11.207031 20.832031 C 11.207031 20.210938 10.699219 19.703125 10.074219 19.703125 Z M 10.074219 19.703125 " fill-opacity="1" fill-rule="nonzero"/><path fill="#000000" d="M 16.535156 22.746094 C 15.476562 22.746094 14.613281 21.890625 14.613281 20.835938 C 14.613281 19.777344 15.476562 18.921875 16.535156 18.921875 C 17.597656 18.921875 18.457031 19.777344 18.457031 20.835938 C 18.457031 21.890625 17.597656 22.746094 16.535156 22.746094 Z M 16.535156 19.703125 C 15.910156 19.703125 15.402344 20.210938 15.402344 20.832031 C 15.402344 21.457031 15.910156 21.964844 16.535156 21.964844 C 17.164062 21.964844 17.671875 21.457031 17.671875 20.832031 C 17.671875 20.210938 17.164062 19.703125 16.535156 19.703125 Z M 16.535156 19.703125 " fill-opacity="1" fill-rule="nonzero"/><path fill="#000000" d="M 23 22.746094 C 21.941406 22.746094 21.078125 21.890625 21.078125 20.835938 C 21.078125 19.777344 21.941406 18.921875 23 18.921875 C 24.058594 18.921875 24.921875 19.777344 24.921875 20.835938 C 24.921875 21.890625 24.058594 22.746094 23 22.746094 Z M 23 19.703125 C 22.375 19.703125 21.863281 20.210938 21.863281 20.832031 C 21.863281 21.457031 22.375 21.964844 23 21.964844 C 23.625 21.964844 24.136719 21.457031 24.136719 20.832031 C 24.136719 20.210938 23.625 19.703125 23 19.703125 Z M 23 19.703125 " fill-opacity="1" fill-rule="nonzero"/></svg>