<?xml version="1.0" encoding="UTF-8" standalone="no"?>
<svg
   width="365.82013"
   zoomAndPan="magnify"
   viewBox="200 250 274.3651 312.79333"
   height="417.05777"
   preserveAspectRatio="xMidYMid"
   version="1.0"
   id="svg4"
   xmlns="http://www.w3.org/2000/svg">
  <path
     d="m 473.93887,288.70252 c -3.36719,-26.41015 -20.67578,-46.10156 -54.89062,-36.01562 -14.02344,4.08203 -24.4375,13.20703 -35.81641,21.44922 -21.95703,15.76953 -39.42578,36.98046 -50.64453,61.55078 -4.24609,9.125 -9.13672,17.92968 -14.50391,28.41406 -2.96484,-3.52344 -4.64843,-5.20313 -5.92968,-7.125 -12.90235,-19.6875 -30.28907,-34.65625 -50.64454,-45.85938 -9.375,-5.125 -19.87109,-8.64453 -30.20703,-11.6875 -3.92578,-1.12109 -10.09765,-0.32031 -13.14453,2.08204 -11.45703,9.04296 -18.82812,21.28906 -18.10937,36.17578 0.48047,10.40625 2.0039,21.13281 5.28906,30.97656 14.58594,42.90234 34.9375,82.28125 69.95703,112.77734 14.98438,13.04297 29.24609,26.89063 43.42969,40.81641 13.9414,13.60937 29.57031,25.45312 46.47656,35.21875 15.70703,9.125 25.5625,6.80469 33.33594,-9.28516 7.60937,-15.76562 14.34375,-31.93359 21.39453,-47.9414 16.42578,-37.14063 27.88672,-75.95703 37.66016,-115.25782 5.28906,-21.53125 9.85546,-43.30078 13.94531,-65.07421 1.83984,-10.32422 3.68359,-21.12891 2.40234,-31.21485 z m 0,0"
     fill-opacity="1"
     fill-rule="nonzero"
     id="path2" />
</svg>
