<svg xmlns="http://www.w3.org/2000/svg" width="60" zoomAndPan="magnify"
     viewBox="0 0 45 37.5" height="50" preserveAspectRatio="xMidYMid meet" version="1.0">
    <defs>
        <clipPath id="1ef2adac0c">
            <path d="M 2.144531 3 L 42.855469 3 L 42.855469 37 L 2.144531 37 Z M 2.144531 3 " clip-rule="nonzero"/>
        </clipPath>
        <clipPath id="4bed4cb5e5">
            <path d="M 2.144531 3 L 42.855469 3 L 42.855469 37.007812 L 2.144531 37.007812 Z M 2.144531 3 "
                  clip-rule="nonzero"/>
        </clipPath>
        <clipPath id="5ae0c5eac4">
            <path d="M 2.144531 3 L 42.855469 3 L 42.855469 11 L 2.144531 11 Z M 2.144531 3 " clip-rule="nonzero"/>
        </clipPath>
        <clipPath id="5f7c7264fb">
            <path d="M 2.144531 3 L 42.855469 3 L 42.855469 12 L 2.144531 12 Z M 2.144531 3 " clip-rule="nonzero"/>
        </clipPath>
        <clipPath id="ade7913663">
            <path d="M 8 0.03125 L 37 0.03125 L 37 8 L 8 8 Z M 8 0.03125 " clip-rule="nonzero"/>
        </clipPath>
        <clipPath id="daef3aeb0e">
            <path d="M 7 0.03125 L 38 0.03125 L 38 8 L 7 8 Z M 7 0.03125 " clip-rule="nonzero"/>
        </clipPath>
    </defs>
    <g clip-path="url(#1ef2adac0c)">
        <path fill="transparent"
              d="M 6.40625 36.636719 C 4.289062 36.636719 2.570312 34.914062 2.570312 32.796875 L 2.570312 7.277344 C 2.570312 5.160156 4.289062 3.4375 6.40625 3.4375 L 38.605469 3.4375 C 40.722656 3.4375 42.441406 5.160156 42.441406 7.277344 L 42.441406 32.796875 C 42.441406 34.914062 40.722656 36.636719 38.605469 36.636719 L 6.40625 36.636719 "
              fill-opacity="0" fill-rule="nonzero"/>
    </g>
    <g clip-path="url(#4bed4cb5e5)">
        <path fill="currentColor"
              d="M 38.605469 3.03125 L 6.40625 3.03125 C 4.066406 3.03125 2.167969 4.9375 2.167969 7.277344 L 2.167969 32.796875 C 2.167969 35.136719 4.066406 37.042969 6.40625 37.042969 L 38.605469 37.042969 C 40.945312 37.042969 42.84375 35.136719 42.84375 32.796875 L 42.84375 7.277344 C 42.84375 4.9375 40.945312 3.03125 38.605469 3.03125 Z M 38.605469 3.84375 C 40.5 3.84375 42.035156 5.378906 42.035156 7.277344 L 42.035156 32.796875 C 42.035156 34.691406 40.5 36.230469 38.605469 36.230469 L 6.40625 36.230469 C 4.511719 36.230469 2.976562 34.691406 2.976562 32.796875 L 2.976562 7.277344 C 2.976562 5.378906 4.511719 3.84375 6.40625 3.84375 L 38.605469 3.84375 "
              fill-opacity="1" fill-rule="nonzero"/>
    </g>
    <g clip-path="url(#5ae0c5eac4)">
        <path fill="transparent"
              d="M 2.976562 10.980469 C 2.753906 10.980469 2.570312 10.796875 2.570312 10.574219 L 2.570312 7.277344 C 2.570312 5.160156 4.289062 3.4375 6.40625 3.4375 L 38.605469 3.4375 C 40.722656 3.4375 42.441406 5.160156 42.441406 7.277344 L 42.441406 10.574219 C 42.441406 10.796875 42.257812 10.980469 42.035156 10.980469 L 2.976562 10.980469 "
              fill-opacity="1" fill-rule="nonzero"/>
    </g>
    <g clip-path="url(#5f7c7264fb)">
        <path fill="currentColor"
              d="M 38.605469 3.03125 L 6.40625 3.03125 C 4.066406 3.03125 2.167969 4.9375 2.167969 7.277344 L 2.167969 10.574219 C 2.167969 11.023438 2.527344 11.386719 2.976562 11.386719 L 42.035156 11.386719 C 42.484375 11.386719 42.84375 11.023438 42.84375 10.574219 L 42.84375 7.277344 C 42.84375 4.9375 40.945312 3.03125 38.605469 3.03125 Z M 38.605469 3.84375 C 40.5 3.84375 42.035156 5.378906 42.035156 7.277344 L 42.035156 10.574219 L 2.976562 10.574219 L 2.976562 7.277344 C 2.976562 5.378906 4.511719 3.84375 6.40625 3.84375 L 38.605469 3.84375 "
              fill-opacity="1" fill-rule="nonzero"/>
    </g>
    <g clip-path="url(#ade7913663)">
        <path fill="transparent"
              d="M 9.695312 7.257812 C 8.863281 7.257812 8.183594 6.578125 8.183594 5.742188 L 8.183594 1.949219 C 8.183594 1.113281 8.863281 0.433594 9.695312 0.433594 C 10.53125 0.433594 11.207031 1.113281 11.207031 1.949219 L 11.207031 5.742188 C 11.207031 6.578125 10.53125 7.257812 9.695312 7.257812 Z M 16.101562 7.257812 C 15.265625 7.257812 14.589844 6.578125 14.589844 5.742188 L 14.589844 1.949219 C 14.589844 1.113281 15.265625 0.433594 16.101562 0.433594 C 16.933594 0.433594 17.613281 1.113281 17.613281 1.949219 L 17.613281 5.742188 C 17.613281 6.578125 16.933594 7.257812 16.101562 7.257812 Z M 22.503906 7.257812 C 21.671875 7.257812 20.992188 6.578125 20.992188 5.742188 L 20.992188 1.949219 C 20.992188 1.113281 21.671875 0.433594 22.503906 0.433594 C 23.339844 0.433594 24.015625 1.113281 24.015625 1.949219 L 24.015625 5.742188 C 24.015625 6.578125 23.339844 7.257812 22.503906 7.257812 Z M 28.910156 7.257812 C 28.074219 7.257812 27.398438 6.578125 27.398438 5.742188 L 27.398438 1.949219 C 27.398438 1.113281 28.074219 0.433594 28.910156 0.433594 C 29.742188 0.433594 30.421875 1.113281 30.421875 1.949219 L 30.421875 5.742188 C 30.421875 6.578125 29.742188 7.257812 28.910156 7.257812 Z M 35.3125 7.257812 C 34.480469 7.257812 33.800781 6.578125 33.800781 5.742188 L 33.800781 1.949219 C 33.800781 1.113281 34.480469 0.433594 35.3125 0.433594 C 36.148438 0.433594 36.828125 1.113281 36.828125 1.949219 L 36.828125 5.742188 C 36.828125 6.578125 36.148438 7.257812 35.3125 7.257812 "
              fill-opacity="1" fill-rule="nonzero"/>
    </g>
    <g clip-path="url(#daef3aeb0e)">
        <path fill="currentColor"
              d="M 9.695312 0.03125 C 8.640625 0.03125 7.78125 0.890625 7.78125 1.949219 L 7.78125 5.742188 C 7.78125 6.800781 8.640625 7.664062 9.695312 7.664062 C 10.753906 7.664062 11.613281 6.800781 11.613281 5.742188 L 11.613281 1.949219 C 11.613281 0.890625 10.753906 0.03125 9.695312 0.03125 Z M 16.101562 0.03125 C 15.042969 0.03125 14.183594 0.890625 14.183594 1.949219 L 14.183594 5.742188 C 14.183594 6.800781 15.042969 7.664062 16.101562 7.664062 C 17.160156 7.664062 18.019531 6.800781 18.019531 5.742188 L 18.019531 1.949219 C 18.019531 0.890625 17.160156 0.03125 16.101562 0.03125 Z M 22.503906 0.03125 C 21.449219 0.03125 20.589844 0.890625 20.589844 1.949219 L 20.589844 5.742188 C 20.589844 6.800781 21.449219 7.664062 22.503906 7.664062 C 23.5625 7.664062 24.421875 6.800781 24.421875 5.742188 L 24.421875 1.949219 C 24.421875 0.890625 23.5625 0.03125 22.503906 0.03125 Z M 28.910156 0.03125 C 27.851562 0.03125 26.992188 0.890625 26.992188 1.949219 L 26.992188 5.742188 C 26.992188 6.800781 27.851562 7.664062 28.910156 7.664062 C 29.964844 7.664062 30.828125 6.800781 30.828125 5.742188 L 30.828125 1.949219 C 30.828125 0.890625 29.964844 0.03125 28.910156 0.03125 Z M 35.3125 0.03125 C 34.257812 0.03125 33.398438 0.890625 33.398438 1.949219 L 33.398438 5.742188 C 33.398438 6.800781 34.257812 7.664062 35.3125 7.664062 C 36.371094 7.664062 37.230469 6.800781 37.230469 5.742188 L 37.230469 1.949219 C 37.230469 0.890625 36.371094 0.03125 35.3125 0.03125 Z M 9.695312 0.839844 C 10.308594 0.839844 10.804688 1.335938 10.804688 1.949219 L 10.804688 5.742188 C 10.804688 6.355469 10.308594 6.851562 9.695312 6.851562 C 9.085938 6.851562 8.589844 6.355469 8.589844 5.742188 L 8.589844 1.949219 C 8.589844 1.335938 9.085938 0.839844 9.695312 0.839844 M 16.101562 0.839844 C 16.710938 0.839844 17.207031 1.335938 17.207031 1.949219 L 17.207031 5.742188 C 17.207031 6.355469 16.710938 6.851562 16.101562 6.851562 C 15.488281 6.851562 14.992188 6.355469 14.992188 5.742188 L 14.992188 1.949219 C 14.992188 1.335938 15.488281 0.839844 16.101562 0.839844 M 22.503906 0.839844 C 23.117188 0.839844 23.613281 1.335938 23.613281 1.949219 L 23.613281 5.742188 C 23.613281 6.355469 23.117188 6.851562 22.503906 6.851562 C 21.894531 6.851562 21.398438 6.355469 21.398438 5.742188 L 21.398438 1.949219 C 21.398438 1.335938 21.894531 0.839844 22.503906 0.839844 M 28.910156 0.839844 C 29.519531 0.839844 30.015625 1.335938 30.015625 1.949219 L 30.015625 5.742188 C 30.015625 6.355469 29.519531 6.851562 28.910156 6.851562 C 28.300781 6.851562 27.804688 6.355469 27.804688 5.742188 L 27.804688 1.949219 C 27.804688 1.335938 28.300781 0.839844 28.910156 0.839844 M 35.3125 0.839844 C 35.925781 0.839844 36.421875 1.335938 36.421875 1.949219 L 36.421875 5.742188 C 36.421875 6.355469 35.925781 6.851562 35.3125 6.851562 C 34.703125 6.851562 34.207031 6.355469 34.207031 5.742188 L 34.207031 1.949219 C 34.207031 1.335938 34.703125 0.839844 35.3125 0.839844 "
              fill-opacity="1" fill-rule="nonzero"/>
    </g>
    <path fill="transparent"
          d="M 22.503906 31.675781 C 22.4375 31.675781 22.367188 31.660156 22.308594 31.625 L 22.296875 31.621094 C 21.636719 31.265625 15.789062 28.070312 14.039062 24.363281 C 12.832031 21.808594 13.128906 19.175781 14.835938 17.320312 C 15.421875 16.6875 16.679688 16.046875 18.183594 16.046875 C 19.882812 16.046875 21.398438 16.867188 22.503906 18.363281 C 23.613281 16.867188 25.128906 16.046875 26.828125 16.046875 C 28.332031 16.046875 29.589844 16.6875 30.175781 17.320312 C 31.882812 19.175781 32.179688 21.808594 30.972656 24.363281 C 29.21875 28.078125 23.371094 31.269531 22.707031 31.621094 C 22.644531 31.65625 22.574219 31.675781 22.503906 31.675781 "
          fill-opacity="1" fill-rule="nonzero"/>
    <path fill="currentColor"
          d="M 26.828125 15.644531 C 25.15625 15.644531 23.65625 16.371094 22.503906 17.710938 C 21.355469 16.371094 19.851562 15.644531 18.183594 15.644531 C 16.753906 15.644531 15.324219 16.195312 14.539062 17.046875 C 12.714844 19.027344 12.390625 21.828125 13.671875 24.539062 C 15.441406 28.28125 21.011719 31.390625 22.109375 31.976562 L 22.113281 31.980469 C 22.234375 32.046875 22.371094 32.082031 22.503906 32.082031 C 22.640625 32.082031 22.773438 32.046875 22.894531 31.980469 L 22.898438 31.980469 C 23.320312 31.753906 24.828125 30.929688 26.503906 29.707031 C 28.925781 27.945312 30.550781 26.207031 31.339844 24.539062 C 32.621094 21.828125 32.296875 19.027344 30.472656 17.046875 C 29.6875 16.195312 28.257812 15.644531 26.828125 15.644531 Z M 26.828125 16.453125 C 28.160156 16.453125 29.332031 17.003906 29.875 17.597656 C 31.78125 19.664062 31.503906 22.296875 30.609375 24.191406 C 28.8125 27.992188 22.515625 31.261719 22.503906 31.269531 C 22.496094 31.261719 16.199219 27.992188 14.402344 24.191406 C 13.507812 22.296875 13.230469 19.664062 15.136719 17.597656 C 15.679688 17.003906 16.851562 16.453125 18.183594 16.453125 C 19.636719 16.453125 21.28125 17.109375 22.503906 19.085938 C 23.726562 17.109375 25.371094 16.453125 26.828125 16.453125 "
          fill-opacity="1" fill-rule="nonzero"/>
</svg>
