<svg xmlns="http://www.w3.org/2000/svg" xmlns:xlink="http://www.w3.org/1999/xlink" width="60" zoomAndPan="magnify" viewBox="0 0 45 37.5" height="50" preserveAspectRatio="xMidYMid meet" version="1.0"><defs><clipPath id="88cae98aa3"><path d="M 23 2.347656 L 44 2.347656 L 44 34.910156 L 23 34.910156 Z M 23 2.347656 " clip-rule="nonzero"/></clipPath><clipPath id="56544873b8"><path d="M 0.667969 7 L 22 7 L 22 31 L 0.667969 31 Z M 0.667969 7 " clip-rule="nonzero"/></clipPath></defs><path fill="#000000" d="M 32.472656 14.695312 C 32.472656 14.507812 32.320312 14.351562 32.128906 14.351562 C 31.941406 14.351562 31.785156 14.507812 31.785156 14.695312 C 31.785156 19.992188 27.511719 24.296875 22.261719 24.296875 C 17.007812 24.296875 12.734375 19.992188 12.734375 14.695312 C 12.734375 9.402344 17.007812 5.097656 22.261719 5.097656 C 24.742188 5.097656 27.09375 6.054688 28.878906 7.792969 C 29.4375 8.332031 31.152344 10.367188 29.792969 14.027344 C 28.570312 17.324219 26.816406 17.433594 26.808594 17.433594 C 25.625 17.433594 24.660156 16.460938 24.660156 15.269531 L 24.660156 13.394531 C 24.664062 13.246094 24.664062 13.097656 24.660156 12.953125 L 24.660156 9.363281 C 24.660156 9.171875 24.507812 9.015625 24.316406 9.015625 C 24.128906 9.015625 23.976562 9.171875 23.976562 9.363281 L 23.976562 10.609375 C 23.671875 10.175781 23.28125 9.855469 22.8125 9.6875 C 21.0625 9.054688 18.9375 10.6875 17.976562 13.398438 C 17.527344 14.664062 17.410156 15.972656 17.652344 17.074219 C 17.90625 18.238281 18.519531 19.050781 19.382812 19.363281 C 19.636719 19.453125 19.898438 19.496094 20.164062 19.496094 C 21.640625 19.496094 23.214844 18.132812 24.078125 16.023438 C 24.40625 17.230469 25.503906 18.125 26.8125 18.125 C 26.902344 18.121094 29.03125 18.046875 30.4375 14.269531 C 31.941406 10.214844 29.988281 7.90625 29.355469 7.292969 C 27.441406 5.429688 24.921875 4.40625 22.261719 4.40625 C 16.628906 4.40625 12.046875 9.023438 12.046875 14.699219 C 12.046875 20.371094 16.628906 24.988281 22.261719 24.988281 C 27.890625 24.988281 32.472656 20.371094 32.472656 14.695312 Z M 19.613281 18.710938 C 18.980469 18.484375 18.523438 17.851562 18.320312 16.929688 C 18.109375 15.949219 18.214844 14.777344 18.621094 13.632812 C 19.332031 11.625 20.773438 10.242188 22.035156 10.242188 C 22.222656 10.242188 22.40625 10.273438 22.582031 10.339844 C 23.214844 10.566406 23.675781 11.199219 23.875 12.121094 C 23.925781 12.367188 23.960938 12.621094 23.976562 12.886719 L 23.976562 13.398438 C 23.949219 14.050781 23.816406 14.738281 23.574219 15.417969 C 22.769531 17.6875 20.957031 19.195312 19.613281 18.710938 Z M 19.613281 18.710938 " fill-opacity="1" fill-rule="nonzero"/><g clip-path="url(#88cae98aa3)"><path fill="#000000" d="M 43.472656 7.308594 C 43.050781 5.679688 41.960938 4.390625 40.488281 3.773438 L 38.105469 2.777344 C 37.378906 2.472656 36.566406 2.503906 35.820312 2.863281 C 35.089844 3.21875 34.503906 3.847656 34.179688 4.640625 L 33.09375 7.273438 C 32.765625 8.066406 32.734375 8.925781 33.003906 9.699219 C 33.277344 10.488281 33.828125 11.085938 34.550781 11.390625 C 35.453125 11.769531 35.996094 12.722656 35.929688 13.824219 C 35.851562 15.183594 35.574219 17.246094 34.714844 19.332031 C 33.851562 21.417969 32.597656 23.070312 31.699219 24.089844 C 30.96875 24.910156 29.917969 25.199219 29.015625 24.820312 C 27.53125 24.199219 25.769531 25.035156 25.089844 26.683594 L 24.003906 29.316406 C 23.324219 30.964844 23.980469 32.8125 25.464844 33.433594 L 27.847656 34.433594 C 28.460938 34.6875 29.109375 34.816406 29.761719 34.816406 C 30.675781 34.816406 31.597656 34.566406 32.4375 34.070312 C 34.78125 32.695312 38.21875 29.496094 41.277344 22.082031 C 44.332031 14.664062 44.15625 9.953125 43.472656 7.308594 Z M 40.640625 21.816406 C 37.65625 29.054688 34.34375 32.152344 32.09375 33.472656 C 30.835938 34.210938 29.386719 34.328125 28.113281 33.792969 L 25.730469 32.796875 C 24.59375 32.320312 24.105469 30.878906 24.640625 29.582031 L 25.722656 26.949219 C 26.140625 25.933594 27.0625 25.304688 27.988281 25.304688 C 28.246094 25.304688 28.503906 25.355469 28.753906 25.460938 C 29.929688 25.949219 31.285156 25.59375 32.210938 24.550781 C 33.144531 23.492188 34.449219 21.773438 35.347656 19.597656 C 36.242188 17.421875 36.53125 15.277344 36.617188 13.863281 C 36.699219 12.464844 35.992188 11.246094 34.816406 10.753906 C 34.273438 10.527344 33.859375 10.070312 33.652344 9.472656 C 33.4375 8.859375 33.464844 8.171875 33.726562 7.539062 L 34.8125 4.90625 C 35.074219 4.269531 35.539062 3.765625 36.117188 3.488281 C 36.6875 3.214844 37.296875 3.1875 37.839844 3.414062 L 40.222656 4.414062 C 41.5 4.949219 42.441406 6.066406 42.808594 7.484375 C 43.46875 10.027344 43.625 14.574219 40.640625 21.816406 Z M 40.640625 21.816406 " fill-opacity="1" fill-rule="nonzero"/></g><g clip-path="url(#56544873b8)"><path fill="#000000" d="M 21.097656 25.804688 C 20.910156 25.804688 20.753906 25.960938 20.753906 26.152344 L 20.753906 29.058594 L 16.359375 25.320312 C 16.300781 25.269531 16.21875 25.238281 16.140625 25.238281 L 3.210938 25.238281 C 2.1875 25.238281 1.351562 24.398438 1.351562 23.367188 L 1.351562 10.199219 C 1.351562 9.167969 2.1875 8.328125 3.210938 8.328125 L 13.148438 8.328125 C 13.339844 8.328125 13.492188 8.171875 13.492188 7.980469 C 13.492188 7.789062 13.339844 7.636719 13.148438 7.636719 L 3.210938 7.636719 C 1.808594 7.636719 0.667969 8.785156 0.667969 10.199219 L 0.667969 23.367188 C 0.667969 24.78125 1.808594 25.929688 3.210938 25.929688 L 16.015625 25.929688 L 20.878906 30.066406 C 20.941406 30.121094 21.019531 30.148438 21.097656 30.148438 C 21.148438 30.148438 21.195312 30.140625 21.242188 30.117188 C 21.363281 30.0625 21.441406 29.9375 21.441406 29.804688 L 21.441406 26.152344 C 21.441406 25.960938 21.289062 25.804688 21.097656 25.804688 Z M 21.097656 25.804688 " fill-opacity="1" fill-rule="nonzero"/></g><path fill="#000000" d="M 10.265625 12.8125 C 10.453125 12.8125 10.605469 12.660156 10.605469 12.46875 C 10.605469 12.277344 10.453125 12.121094 10.265625 12.121094 L 4.988281 12.121094 C 4.800781 12.121094 4.648438 12.277344 4.648438 12.46875 C 4.648438 12.660156 4.800781 12.8125 4.988281 12.8125 Z M 10.265625 12.8125 " fill-opacity="1" fill-rule="nonzero"/><path fill="#000000" d="M 2.746094 17.644531 C 2.746094 17.835938 2.902344 17.988281 3.089844 17.988281 L 11.054688 17.988281 C 11.242188 17.988281 11.394531 17.835938 11.394531 17.644531 C 11.394531 17.453125 11.242188 17.296875 11.054688 17.296875 L 3.089844 17.296875 C 2.902344 17.296875 2.746094 17.453125 2.746094 17.644531 Z M 2.746094 17.644531 " fill-opacity="1" fill-rule="nonzero"/></svg>