<svg xmlns="http://www.w3.org/2000/svg" xmlns:xlink="http://www.w3.org/1999/xlink" width="50" zoomAndPan="magnify" viewBox="0 0 37.5 37.499999" height="50" preserveAspectRatio="xMidYMid meet" version="1.0"><defs><clipPath id="fbd30153a7"><path d="M 0.554688 0.554688 L 36.820312 0.554688 L 36.820312 36.820312 L 0.554688 36.820312 Z M 0.554688 0.554688 " clip-rule="nonzero"/></clipPath></defs><g clip-path="url(#fbd30153a7)"><path fill="#000000" d="M 18.6875 0.554688 C 8.691406 0.554688 0.554688 8.691406 0.554688 18.6875 C 0.554688 28.6875 8.691406 36.820312 18.6875 36.820312 C 28.6875 36.820312 36.820312 28.6875 36.820312 18.6875 C 36.820312 8.691406 28.6875 0.554688 18.6875 0.554688 Z M 18.6875 35.121094 C 9.628906 35.121094 2.253906 27.75 2.253906 18.6875 C 2.253906 9.628906 9.628906 2.253906 18.6875 2.253906 C 27.75 2.253906 35.121094 9.628906 35.121094 18.6875 C 35.121094 27.75 27.75 35.121094 18.6875 35.121094 Z M 27.210938 11.214844 L 10.167969 11.214844 C 9.027344 11.214844 8.097656 12.144531 8.097656 13.28125 L 8.097656 24.09375 C 8.097656 25.234375 9.027344 26.160156 10.167969 26.160156 L 27.210938 26.160156 C 28.351562 26.160156 29.277344 25.234375 29.277344 24.09375 L 29.277344 13.28125 C 29.277344 12.144531 28.351562 11.214844 27.210938 11.214844 Z M 25.929688 12.914062 L 18.6875 18.664062 L 11.449219 12.914062 Z M 27.210938 24.460938 L 10.167969 24.460938 C 9.964844 24.460938 9.796875 24.296875 9.796875 24.09375 L 9.796875 13.777344 L 18.160156 20.417969 C 18.316406 20.539062 18.5 20.601562 18.6875 20.601562 C 18.875 20.601562 19.0625 20.539062 19.21875 20.417969 L 27.578125 13.777344 L 27.578125 24.09375 C 27.578125 24.296875 27.414062 24.460938 27.210938 24.460938 Z M 27.210938 24.460938 " fill-opacity="1" fill-rule="nonzero"/></g></svg>