<svg xmlns="http://www.w3.org/2000/svg" xmlns:xlink="http://www.w3.org/1999/xlink" width="50" zoomAndPan="magnify" viewBox="0 0 37.5 37.499999" height="50" preserveAspectRatio="xMidYMid meet" version="1.0"><defs><clipPath id="421d1e94b6"><path d="M 0.117188 14 L 3 14 L 3 16 L 0.117188 16 Z M 0.117188 14 " clip-rule="nonzero"/></clipPath></defs><path fill="#e6d5bd" d="M 25.445312 12.476562 C 24.191406 11.332031 22.53125 11.476562 21.160156 12.335938 C 20.359375 12.835938 19.664062 13.523438 19.097656 14.28125 C 18.773438 14.714844 18.539062 15.144531 18.355469 15.609375 C 17.792969 14.398438 16.324219 13.421875 15.195312 13.011719 C 13.550781 12.417969 11.753906 12.789062 10.710938 14.242188 C 9.632812 15.746094 9.574219 17.773438 10.359375 19.410156 C 11.144531 21.054688 12.632812 22.300781 14.035156 23.402344 C 14.855469 24.046875 15.691406 24.691406 16.53125 25.324219 C 16.992188 25.667969 17.433594 26.042969 17.878906 26.394531 C 17.996094 26.761719 18.378906 27.0625 18.796875 27.0625 C 19.007812 27.160156 19.273438 27.042969 19.382812 26.84375 C 20.875 25.589844 22.390625 24.355469 23.75 22.945312 C 25.136719 21.5 26.507812 19.796875 27 17.816406 C 27.449219 15.984375 26.867188 13.765625 25.445312 12.476562 Z M 25.292969 17.714844 C 24.769531 19.3125 23.566406 20.664062 22.390625 21.832031 C 21.195312 23.027344 19.875 24.097656 18.585938 25.191406 C 17.929688 24.445312 17.066406 23.828125 16.292969 23.238281 C 15.019531 22.265625 13.6875 21.304688 12.617188 20.097656 C 11.714844 19.085938 11.054688 17.796875 11.339844 16.410156 C 11.628906 14.992188 12.574219 13.980469 14.085938 14.082031 C 14.871094 14.132812 15.648438 14.449219 16.308594 14.851562 C 17 15.277344 17.46875 15.886719 18.0625 16.410156 C 18.035156 16.503906 18.003906 16.605469 17.976562 16.710938 C 17.921875 16.886719 18.164062 16.972656 18.261719 16.828125 C 18.335938 16.714844 18.421875 16.605469 18.503906 16.496094 C 18.523438 16.480469 18.546875 16.460938 18.554688 16.429688 C 18.898438 16.003906 19.316406 15.59375 19.683594 15.21875 C 20.175781 14.71875 20.660156 14.222656 21.234375 13.808594 C 22.128906 13.179688 23.375 12.546875 24.34375 13.386719 C 25.554688 14.457031 25.769531 16.277344 25.292969 17.714844 Z M 25.292969 17.714844 " fill-opacity="1" fill-rule="nonzero"/><path fill="#e6d5bd" d="M 16.214844 3.242188 C 16.289062 3.300781 16.449219 3.300781 16.523438 3.242188 C 16.902344 2.949219 16.851562 2.570312 16.835938 2.113281 C 16.824219 1.570312 16.800781 1.011719 16.734375 0.476562 C 16.675781 0 16.050781 0 15.992188 0.476562 C 15.925781 1.011719 15.90625 1.570312 15.890625 2.113281 C 15.882812 2.570312 15.832031 2.949219 16.214844 3.242188 Z M 16.214844 3.242188 " fill-opacity="1" fill-rule="nonzero"/><path fill="#e6d5bd" d="M 10.84375 4.21875 C 10.621094 3.898438 10.394531 3.589844 10.175781 3.273438 C 9.96875 2.980469 9.777344 2.621094 9.507812 2.378906 C 9.308594 2.203125 8.890625 2.304688 8.925781 2.621094 C 9.007812 3.417969 9.726562 4.132812 10.253906 4.675781 C 10.542969 4.976562 11.085938 4.578125 10.84375 4.21875 Z M 10.84375 4.21875 " fill-opacity="1" fill-rule="nonzero"/><path fill="#e6d5bd" d="M 3.355469 8.203125 C 3.070312 8.167969 2.929688 8.578125 3.128906 8.753906 C 3.570312 9.164062 4.082031 9.511719 4.683594 9.621094 C 5.066406 9.695312 5.359375 9.261719 5.074219 8.960938 C 4.613281 8.484375 4.003906 8.277344 3.355469 8.203125 Z M 3.355469 8.203125 " fill-opacity="1" fill-rule="nonzero"/><g clip-path="url(#421d1e94b6)"><path fill="#e6d5bd" d="M 2.660156 14.714844 C 2.058594 14.425781 1.316406 14.355469 0.671875 14.53125 C 0.128906 14.675781 0.3125 15.367188 0.796875 15.433594 C 1.332031 15.503906 1.867188 15.585938 2.410156 15.652344 C 2.894531 15.71875 3.09375 14.917969 2.660156 14.714844 Z M 2.660156 14.714844 " fill-opacity="1" fill-rule="nonzero"/></g><path fill="#e6d5bd" d="M 3.476562 22.382812 C 3.042969 22.375 2.59375 22.558594 2.226562 22.769531 C 1.824219 23.011719 1.53125 23.292969 1.25 23.664062 C 0.980469 24.039062 1.425781 24.488281 1.816406 24.398438 C 2.519531 24.230469 3.335938 23.738281 3.804688 23.175781 C 4.054688 22.875 3.90625 22.394531 3.476562 22.382812 Z M 3.476562 22.382812 " fill-opacity="1" fill-rule="nonzero"/><path fill="#e6d5bd" d="M 6.753906 28.847656 C 6.453125 28.914062 6.195312 29.042969 5.976562 29.257812 C 5.765625 29.464844 5.589844 29.765625 5.523438 30.050781 C 5.417969 30.511719 5.96875 30.855469 6.328125 30.519531 C 6.628906 30.226562 6.902344 29.894531 7.210938 29.609375 C 7.554688 29.285156 7.179688 28.757812 6.753906 28.847656 Z M 6.753906 28.847656 " fill-opacity="1" fill-rule="nonzero"/><path fill="#e6d5bd" d="M 11.582031 33.191406 C 10.972656 33.578125 10.847656 34.539062 10.871094 35.203125 C 10.886719 35.546875 11.363281 35.613281 11.464844 35.28125 C 11.570312 34.964844 11.679688 34.652344 11.78125 34.328125 C 11.875 34.035156 12 33.726562 11.964844 33.410156 C 11.941406 33.234375 11.757812 33.082031 11.582031 33.191406 Z M 11.582031 33.191406 " fill-opacity="1" fill-rule="nonzero"/><path fill="#e6d5bd" d="M 17.746094 34.753906 C 17.660156 34.503906 17.308594 34.429688 17.167969 34.679688 C 16.824219 35.273438 17 36.066406 17.316406 36.632812 C 17.527344 37.007812 18.011719 36.726562 17.960938 36.359375 C 17.886719 35.839844 17.917969 35.253906 17.746094 34.753906 Z M 17.746094 34.753906 " fill-opacity="1" fill-rule="nonzero"/><path fill="#e6d5bd" d="M 29.246094 30.960938 C 28.902344 30.804688 28.535156 31.203125 28.828125 31.503906 C 29.347656 32.039062 30.054688 32.433594 30.722656 32.757812 C 30.976562 32.882812 31.242188 32.632812 31.109375 32.367188 C 30.757812 31.664062 29.949219 31.269531 29.246094 30.960938 Z M 29.246094 30.960938 " fill-opacity="1" fill-rule="nonzero"/><path fill="#e6d5bd" d="M 33.453125 26.710938 C 32.9375 26.59375 32.351562 26.453125 31.828125 26.578125 C 31.484375 26.660156 31.449219 27.144531 31.734375 27.3125 C 32.152344 27.570312 32.6875 27.644531 33.148438 27.789062 C 33.632812 27.9375 34.113281 28.046875 34.617188 28.0625 C 34.933594 28.070312 35.140625 27.628906 34.890625 27.414062 C 34.472656 27.054688 33.996094 26.828125 33.453125 26.710938 Z M 33.453125 26.710938 " fill-opacity="1" fill-rule="nonzero"/><path fill="#e6d5bd" d="M 35.910156 21.773438 C 35.316406 21.421875 34.492188 21.15625 33.816406 21.441406 C 33.582031 21.546875 33.429688 21.941406 33.738281 22.074219 C 34.308594 22.332031 34.976562 22.394531 35.59375 22.535156 C 36.042969 22.636719 36.328125 22.023438 35.910156 21.773438 Z M 35.910156 21.773438 " fill-opacity="1" fill-rule="nonzero"/><path fill="#e6d5bd" d="M 36.414062 15.015625 C 35.628906 14.933594 34.734375 15.199219 34.171875 15.777344 C 33.847656 16.113281 34.25 16.546875 34.640625 16.386719 C 35.277344 16.113281 35.960938 15.9375 36.578125 15.617188 C 36.878906 15.441406 36.703125 15.042969 36.414062 15.015625 Z M 36.414062 15.015625 " fill-opacity="1" fill-rule="nonzero"/><path fill="#e6d5bd" d="M 32.4375 10.550781 C 33.011719 10.140625 33.632812 9.78125 34.164062 9.3125 C 34.382812 9.113281 34.214844 8.695312 33.914062 8.710938 C 33.046875 8.761719 32.445312 9.453125 32.0625 10.179688 C 31.945312 10.40625 32.195312 10.726562 32.4375 10.550781 Z M 32.4375 10.550781 " fill-opacity="1" fill-rule="nonzero"/><path fill="#e6d5bd" d="M 28.976562 4.367188 C 29.296875 4.066406 29.636719 3.792969 29.832031 3.390625 C 30.074219 2.898438 29.511719 2.503906 29.105469 2.824219 C 28.402344 3.382812 27.535156 4.160156 27.484375 5.121094 C 27.464844 5.488281 27.925781 5.53125 28.109375 5.289062 C 28.375 4.953125 28.660156 4.660156 28.976562 4.367188 Z M 28.976562 4.367188 " fill-opacity="1" fill-rule="nonzero"/><path fill="#e6d5bd" d="M 22.4375 2.898438 C 22.65625 2.070312 23.015625 1.359375 22.964844 0.476562 C 22.941406 0.0820312 22.445312 0.0429688 22.304688 0.390625 C 21.96875 1.195312 21.695312 1.914062 21.730469 2.804688 C 21.753906 3.191406 22.332031 3.292969 22.4375 2.898438 Z M 22.4375 2.898438 " fill-opacity="1" fill-rule="nonzero"/><path fill="#e6d5bd" d="M 24.25 34.304688 C 24.242188 34.035156 24.050781 33.808594 23.78125 33.769531 C 23.539062 33.742188 23.222656 33.886719 23.183594 34.160156 C 23.140625 34.460938 23.097656 34.769531 23.125 35.078125 C 23.164062 35.414062 23.28125 35.699219 23.417969 36 C 23.53125 36.242188 23.867188 36.316406 24.085938 36.222656 C 24.351562 36.105469 24.445312 35.863281 24.394531 35.589844 C 24.328125 35.171875 24.265625 34.730469 24.25 34.304688 Z M 24.25 34.304688 " fill-opacity="1" fill-rule="nonzero"/></svg>