<svg xmlns="http://www.w3.org/2000/svg" xmlns:xlink="http://www.w3.org/1999/xlink" width="50" zoomAndPan="magnify" viewBox="0 0 37.5 37.499999" height="50" preserveAspectRatio="xMidYMid meet" version="1.0"><defs><clipPath id="3b18ed6b52"><path d="M 0.554688 0.554688 L 36.453125 0.554688 L 36.453125 36.453125 L 0.554688 36.453125 Z M 0.554688 0.554688 " clip-rule="nonzero"/></clipPath><clipPath id="7ad959d966"><path d="M 18.503906 0.554688 C 8.589844 0.554688 0.554688 8.589844 0.554688 18.503906 C 0.554688 28.414062 8.589844 36.453125 18.503906 36.453125 C 28.414062 36.453125 36.453125 28.414062 36.453125 18.503906 C 36.453125 8.589844 28.414062 0.554688 18.503906 0.554688 Z M 18.503906 0.554688 " clip-rule="nonzero"/></clipPath><clipPath id="66124d1137"><path d="M 7.402344 7.402344 L 29.605469 7.402344 L 29.605469 29.605469 L 7.402344 29.605469 Z M 7.402344 7.402344 " clip-rule="nonzero"/></clipPath></defs><g clip-path="url(#3b18ed6b52)"><g clip-path="url(#7ad959d966)"><path stroke-linecap="butt" transform="matrix(0.740132, 0, 0, 0.740132, 0.555099, 0.555099)" fill="none" stroke-linejoin="miter" d="M 24.250834 -0.000555504 C 10.855833 -0.000555504 -0.00055618 10.855834 -0.00055618 24.250835 C -0.00055618 37.640558 10.855833 48.502226 24.250834 48.502226 C 37.640558 48.502226 48.502225 37.640558 48.502225 24.250835 C 48.502225 10.855834 37.640558 -0.000555504 24.250834 -0.000555504 Z M 24.250834 -0.000555504 " stroke="#000000" stroke-width="4" stroke-opacity="1" stroke-miterlimit="4"/></g></g><g clip-path="url(#66124d1137)"><path fill="#000000" d="M 26.304688 29.605469 L 10.703125 29.605469 C 8.882812 29.605469 7.402344 28.125 7.402344 26.304688 L 7.402344 10.703125 C 7.402344 8.882812 8.882812 7.402344 10.703125 7.402344 L 26.304688 7.402344 C 28.125 7.402344 29.605469 8.882812 29.605469 10.703125 L 29.605469 26.304688 C 29.605469 28.125 28.125 29.605469 26.304688 29.605469 Z M 10.703125 8.601562 C 9.542969 8.601562 8.601562 9.542969 8.601562 10.703125 L 8.601562 26.304688 C 8.601562 27.460938 9.542969 28.40625 10.703125 28.40625 L 26.304688 28.40625 C 27.460938 28.40625 28.40625 27.460938 28.40625 26.304688 L 28.40625 10.703125 C 28.40625 9.542969 27.460938 8.601562 26.304688 8.601562 Z M 10.703125 8.601562 " fill-opacity="1" fill-rule="nonzero"/></g><path fill="#000000" d="M 18.503906 24.804688 C 15.027344 24.804688 12.203125 21.976562 12.203125 18.503906 C 12.203125 15.027344 15.027344 12.203125 18.503906 12.203125 C 21.976562 12.203125 24.804688 15.027344 24.804688 18.503906 C 24.804688 21.976562 21.976562 24.804688 18.503906 24.804688 Z M 18.503906 13.402344 C 15.691406 13.402344 13.402344 15.691406 13.402344 18.503906 C 13.402344 21.316406 15.691406 23.605469 18.503906 23.605469 C 21.316406 23.605469 23.605469 21.316406 23.605469 18.503906 C 23.605469 15.691406 21.316406 13.402344 18.503906 13.402344 Z M 18.503906 13.402344 " fill-opacity="1" fill-rule="nonzero"/><path fill="#000000" d="M 25.105469 14.003906 C 23.945312 14.003906 23.003906 13.058594 23.003906 11.902344 C 23.003906 10.742188 23.945312 9.800781 25.105469 9.800781 C 26.261719 9.800781 27.203125 10.742188 27.203125 11.902344 C 27.203125 13.058594 26.261719 14.003906 25.105469 14.003906 Z M 25.105469 11.003906 C 24.609375 11.003906 24.203125 11.40625 24.203125 11.902344 C 24.203125 12.398438 24.609375 12.800781 25.105469 12.800781 C 25.601562 12.800781 26.003906 12.398438 26.003906 11.902344 C 26.003906 11.40625 25.601562 11.003906 25.105469 11.003906 Z M 25.105469 11.003906 " fill-opacity="1" fill-rule="nonzero"/></svg>