<svg xmlns="http://www.w3.org/2000/svg" xmlns:xlink="http://www.w3.org/1999/xlink" width="50" zoomAndPan="magnify" viewBox="0 0 37.5 37.499999" height="50" preserveAspectRatio="xMidYMid meet" version="1.0"><defs><clipPath id="c8cd8fcdbf"><path d="M 0.554688 0.554688 L 36.820312 0.554688 L 36.820312 36.820312 L 0.554688 36.820312 Z M 0.554688 0.554688 " clip-rule="nonzero"/></clipPath></defs><g clip-path="url(#c8cd8fcdbf)"><path fill="#000000" d="M 18.6875 7.214844 C 14.085938 7.214844 10.339844 10.957031 10.339844 15.5625 C 10.339844 19.234375 13.210938 23.148438 15.742188 26.601562 C 16.570312 27.730469 17.355469 28.796875 17.972656 29.769531 C 18.125 30.015625 18.398438 30.164062 18.6875 30.164062 C 18.695312 30.164062 18.699219 30.164062 18.707031 30.164062 C 19.003906 30.15625 19.277344 29.996094 19.425781 29.738281 C 20.167969 28.449219 21.144531 27.148438 22.175781 25.769531 C 24.566406 22.574219 27.035156 19.269531 27.035156 15.5625 C 27.035156 10.957031 23.292969 7.214844 18.6875 7.214844 Z M 20.8125 24.75 C 20.078125 25.734375 19.324219 26.738281 18.664062 27.742188 C 18.183594 27.054688 17.660156 26.339844 17.113281 25.59375 C 14.734375 22.355469 12.039062 18.679688 12.039062 15.5625 C 12.039062 11.894531 15.023438 8.914062 18.6875 8.914062 C 22.355469 8.914062 25.335938 11.894531 25.335938 15.5625 C 25.335938 18.703125 23.035156 21.777344 20.8125 24.75 Z M 18.6875 11.804688 C 16.617188 11.804688 14.929688 13.488281 14.929688 15.5625 C 14.929688 17.632812 16.617188 19.320312 18.6875 19.320312 C 20.761719 19.320312 22.445312 17.632812 22.445312 15.5625 C 22.445312 13.488281 20.761719 11.804688 18.6875 11.804688 Z M 18.6875 17.621094 C 17.554688 17.621094 16.628906 16.695312 16.628906 15.5625 C 16.628906 14.425781 17.554688 13.503906 18.6875 13.503906 C 19.824219 13.503906 20.746094 14.425781 20.746094 15.5625 C 20.746094 16.695312 19.824219 17.621094 18.6875 17.621094 Z M 18.6875 0.554688 C 8.691406 0.554688 0.554688 8.691406 0.554688 18.6875 C 0.554688 28.6875 8.691406 36.820312 18.6875 36.820312 C 28.6875 36.820312 36.820312 28.6875 36.820312 18.6875 C 36.820312 8.691406 28.6875 0.554688 18.6875 0.554688 Z M 18.6875 35.121094 C 9.628906 35.121094 2.253906 27.75 2.253906 18.6875 C 2.253906 9.628906 9.628906 2.253906 18.6875 2.253906 C 27.75 2.253906 35.121094 9.628906 35.121094 18.6875 C 35.121094 27.75 27.75 35.121094 18.6875 35.121094 Z M 18.6875 35.121094 " fill-opacity="1" fill-rule="nonzero"/></g></svg>