<svg xmlns="http://www.w3.org/2000/svg" xmlns:xlink="http://www.w3.org/1999/xlink" width="50" zoomAndPan="magnify" viewBox="0 0 37.5 37.499999" height="50" preserveAspectRatio="xMidYMid meet" version="1.0"><defs><clipPath id="0fd96e62a4"><path d="M 0.554688 0.554688 L 36.820312 0.554688 L 36.820312 36.820312 L 0.554688 36.820312 Z M 0.554688 0.554688 " clip-rule="nonzero"/></clipPath></defs><g clip-path="url(#0fd96e62a4)"><path fill="#000000" d="M 18.6875 36.820312 C 8.6875 36.820312 0.554688 28.6875 0.554688 18.6875 C 0.554688 8.6875 8.6875 0.554688 18.6875 0.554688 C 28.6875 0.554688 36.820312 8.6875 36.820312 18.6875 C 36.820312 28.6875 28.6875 36.820312 18.6875 36.820312 Z M 18.6875 2.066406 C 9.523438 2.066406 2.066406 9.523438 2.066406 18.6875 C 2.066406 27.851562 9.523438 35.308594 18.6875 35.308594 C 27.851562 35.308594 35.308594 27.851562 35.308594 18.6875 C 35.308594 9.523438 27.851562 2.066406 18.6875 2.066406 Z M 18.6875 2.066406 " fill-opacity="1" fill-rule="nonzero"/></g><path fill="#000000" d="M 23.933594 29.269531 C 22.398438 29.269531 20.816406 28.859375 19.554688 28.464844 C 17.074219 27.691406 14.78125 26.304688 12.929688 24.449219 C 10.433594 21.957031 8.734375 18.625 8.261719 15.3125 C 8.050781 13.824219 7.925781 11.921875 8.855469 10.40625 C 9.726562 8.988281 11.300781 8.109375 12.964844 8.109375 C 13.253906 8.109375 13.535156 8.140625 13.804688 8.1875 C 13.820312 8.191406 13.835938 8.191406 13.847656 8.195312 C 14.785156 8.371094 15.527344 9.171875 15.660156 10.15625 L 16.289062 14.878906 C 16.421875 15.875 15.894531 16.863281 15 17.277344 C 14.902344 17.324219 14.804688 17.367188 14.699219 17.40625 C 15.226562 18.5625 15.953125 19.601562 16.863281 20.511719 C 17.769531 21.421875 18.8125 22.148438 19.96875 22.675781 C 20.007812 22.574219 20.050781 22.472656 20.09375 22.375 C 20.511719 21.480469 21.5 20.949219 22.496094 21.085938 L 27.21875 21.71875 C 28.210938 21.847656 29.019531 22.605469 29.183594 23.554688 C 29.234375 23.835938 29.265625 24.121094 29.265625 24.410156 C 29.265625 25.980469 28.5 27.457031 27.214844 28.355469 C 26.257812 29.03125 25.109375 29.269531 23.933594 29.269531 Z M 12.964844 9.621094 C 11.824219 9.621094 10.742188 10.226562 10.144531 11.195312 C 9.464844 12.300781 9.582031 13.863281 9.757812 15.097656 C 10.183594 18.09375 11.726562 21.113281 13.996094 23.378906 C 15.679688 25.0625 17.757812 26.320312 20.007812 27.023438 C 23.023438 27.964844 25.101562 27.996094 26.347656 27.117188 C 27.214844 26.511719 27.753906 25.472656 27.753906 24.410156 C 27.753906 24.203125 27.730469 24.007812 27.699219 23.820312 C 27.644531 23.503906 27.363281 23.257812 27.019531 23.214844 L 22.296875 22.582031 C 21.953125 22.542969 21.605469 22.710938 21.46875 23.007812 C 21.351562 23.261719 21.265625 23.535156 21.214844 23.824219 C 21.175781 24.046875 21.042969 24.234375 20.847656 24.347656 C 20.652344 24.460938 20.421875 24.480469 20.210938 24.402344 C 18.542969 23.789062 17.058594 22.839844 15.800781 21.578125 C 14.539062 20.320312 13.589844 18.835938 12.976562 17.164062 C 12.898438 16.957031 12.917969 16.722656 13.027344 16.527344 C 13.140625 16.335938 13.332031 16.199219 13.554688 16.160156 C 13.839844 16.113281 14.117188 16.027344 14.367188 15.90625 C 14.667969 15.769531 14.84375 15.429688 14.796875 15.078125 L 14.160156 10.355469 C 14.117188 10.011719 13.871094 9.730469 13.5625 9.679688 C 13.511719 9.671875 13.460938 9.65625 13.414062 9.636719 C 13.367188 9.648438 13.167969 9.621094 12.964844 9.621094 Z M 12.964844 9.621094 " fill-opacity="1" fill-rule="nonzero"/></svg>