<svg xmlns="http://www.w3.org/2000/svg" xmlns:xlink="http://www.w3.org/1999/xlink" width="60" zoomAndPan="magnify" viewBox="0 0 45 37.5" height="50" preserveAspectRatio="xMidYMid meet" version="1.0"><defs><clipPath id="5b7b66af71"><path d="M 0.667969 3.3125 L 44.332031 3.3125 L 44.332031 33.65625 L 0.667969 33.65625 Z M 0.667969 3.3125 " clip-rule="nonzero"/></clipPath></defs><g clip-path="url(#5b7b66af71)"><path fill="#000000" d="M 3.621094 3.355469 C 3.820312 3.378906 4.429688 3.472656 4.988281 3.554688 C 5.539062 3.644531 6.339844 3.769531 6.769531 3.828125 C 7.195312 3.890625 8.265625 4.050781 9.136719 4.179688 C 10.015625 4.316406 11.304688 4.507812 12.007812 4.609375 C 12.71875 4.714844 14.335938 4.957031 15.621094 5.140625 C 16.90625 5.332031 18.457031 5.5625 19.074219 5.652344 C 19.699219 5.746094 20.28125 5.835938 20.378906 5.851562 C 20.511719 5.882812 20.554688 5.941406 20.554688 6.101562 C 20.546875 6.21875 20.410156 7.292969 20.234375 8.484375 C 20.066406 9.683594 19.875 10.972656 19.816406 11.351562 C 19.746094 11.742188 19.699219 12.167969 19.699219 12.558594 L 20.472656 12.558594 C 20.9375 12.558594 21.351562 12.597656 21.503906 12.65625 C 21.640625 12.71875 21.894531 12.886719 22.070312 13.039062 C 22.242188 13.191406 22.457031 13.488281 22.558594 13.726562 C 22.695312 14.039062 22.742188 14.28125 22.742188 14.695312 C 22.742188 14.992188 22.679688 15.472656 22.617188 15.753906 C 22.550781 16.046875 22.40625 16.472656 22.296875 16.710938 C 22.191406 16.945312 22.007812 17.207031 21.894531 17.28125 C 21.777344 17.367188 21.503906 17.472656 21.289062 17.519531 C 20.976562 17.585938 20.785156 17.578125 20.320312 17.488281 C 20 17.417969 19.601562 17.296875 19.425781 17.210938 C 19.257812 17.128906 19.082031 17.058594 19.035156 17.058594 C 18.996094 17.050781 18.898438 17.503906 18.820312 18.042969 C 18.738281 18.585938 18.554688 19.835938 18.410156 20.820312 C 18.257812 21.796875 18.105469 22.769531 17.988281 23.339844 L 17.660156 23.292969 C 17.476562 23.261719 16.507812 23.132812 15.507812 22.988281 C 14.503906 22.84375 13.277344 22.691406 12.785156 22.636719 C 12.296875 22.585938 11.742188 22.523438 11.542969 22.492188 C 11.25 22.453125 11.191406 22.417969 11.167969 22.25 C 11.160156 22.148438 11.199219 21.9375 11.25 21.789062 C 11.3125 21.636719 11.558594 21.296875 11.785156 21.019531 C 12.015625 20.753906 12.28125 20.417969 12.382812 20.289062 C 12.472656 20.152344 12.558594 19.9375 12.550781 19.808594 C 12.550781 19.640625 12.464844 19.507812 12.261719 19.320312 C 12.09375 19.171875 11.769531 19.007812 11.464844 18.914062 C 11.191406 18.824219 10.703125 18.738281 10.378906 18.707031 C 10.058594 18.683594 9.59375 18.707031 9.335938 18.753906 C 9.074219 18.808594 8.746094 18.90625 8.601562 18.984375 C 8.457031 19.050781 8.273438 19.21875 8.1875 19.339844 C 8.113281 19.472656 8.050781 19.667969 8.050781 19.792969 C 8.050781 19.90625 8.195312 20.3125 8.378906 20.683594 C 8.554688 21.058594 8.707031 21.457031 8.707031 21.578125 C 8.707031 21.699219 8.660156 21.828125 8.59375 21.867188 C 8.53125 21.90625 8.347656 21.945312 8.1875 21.945312 C 8.027344 21.945312 7.644531 21.890625 7.332031 21.835938 C 7.027344 21.777344 6.4375 21.667969 6.035156 21.601562 C 5.628906 21.53125 4.574219 21.371094 3.703125 21.242188 C 2.824219 21.121094 1.800781 20.960938 1.4375 20.898438 C 0.929688 20.808594 0.742188 20.746094 0.703125 20.644531 C 0.671875 20.570312 0.777344 19.640625 0.9375 18.570312 C 1.097656 17.503906 1.367188 15.738281 1.535156 14.648438 C 1.75 13.253906 1.878906 12.621094 1.96875 12.488281 C 2.109375 12.304688 2.128906 12.300781 3.039062 12.335938 C 3.75 12.367188 4.054688 12.414062 4.324219 12.527344 C 4.515625 12.621094 4.867188 12.855469 5.101562 13.0625 C 5.339844 13.261719 5.644531 13.472656 5.78125 13.535156 C 5.917969 13.597656 6.140625 13.640625 6.261719 13.640625 C 6.417969 13.640625 6.59375 13.558594 6.78125 13.390625 C 6.9375 13.253906 7.140625 12.984375 7.234375 12.789062 C 7.324219 12.597656 7.457031 12.269531 7.507812 12.054688 C 7.570312 11.839844 7.617188 11.484375 7.625 11.269531 C 7.625 10.980469 7.578125 10.804688 7.460938 10.644531 C 7.378906 10.519531 7.148438 10.34375 6.957031 10.253906 C 6.769531 10.15625 6.5 10.078125 6.363281 10.078125 C 6.226562 10.078125 5.835938 10.183594 5.507812 10.324219 C 5.011719 10.527344 4.804688 10.574219 4.285156 10.574219 C 3.910156 10.574219 3.4375 10.519531 3.085938 10.429688 C 2.765625 10.34375 2.4375 10.222656 2.351562 10.15625 C 2.214844 10.039062 2.214844 9.988281 2.488281 8.214844 C 2.640625 7.210938 2.855469 5.796875 2.964844 5.074219 C 3.070312 4.347656 3.183594 3.652344 3.214844 3.53125 C 3.269531 3.316406 3.285156 3.3125 3.621094 3.355469 Z M 3.511719 5.074219 C 3.453125 5.453125 3.277344 6.636719 3.125 7.691406 C 2.972656 8.75 2.847656 9.667969 2.847656 9.726562 C 2.847656 9.789062 2.964844 9.871094 3.101562 9.917969 C 3.238281 9.957031 3.582031 10.023438 3.855469 10.078125 C 4.355469 10.179688 4.375 10.171875 5.21875 9.886719 C 5.925781 9.644531 6.148438 9.597656 6.539062 9.621094 C 6.796875 9.644531 7.140625 9.726562 7.308594 9.8125 C 7.484375 9.902344 7.730469 10.125 7.859375 10.308594 C 8.074219 10.613281 8.089844 10.671875 8.082031 11.34375 C 8.074219 11.863281 8.027344 12.167969 7.90625 12.480469 C 7.820312 12.71875 7.628906 13.101562 7.492188 13.328125 C 7.292969 13.65625 7.140625 13.800781 6.804688 13.976562 C 6.460938 14.160156 6.324219 14.191406 6.050781 14.152344 C 5.875 14.128906 5.613281 14.054688 5.492188 13.992188 C 5.363281 13.933594 5.042969 13.679688 4.773438 13.445312 C 4.507812 13.207031 4.164062 12.984375 4.011719 12.941406 C 3.863281 12.902344 3.421875 12.871094 3.023438 12.871094 C 2.628906 12.871094 2.304688 12.894531 2.304688 12.925781 C 2.304688 12.957031 2.101562 14.414062 1.839844 16.167969 C 1.589844 17.914062 1.351562 19.554688 1.304688 19.808594 C 1.265625 20.066406 1.253906 20.304688 1.28125 20.332031 C 1.3125 20.363281 1.664062 20.441406 2.070312 20.5 C 2.472656 20.570312 3.871094 20.777344 5.179688 20.96875 C 6.476562 21.15625 7.660156 21.324219 7.800781 21.339844 C 7.9375 21.347656 8.050781 21.332031 8.050781 21.300781 C 8.050781 21.273438 7.945312 20.972656 7.804688 20.644531 C 7.625 20.171875 7.578125 19.953125 7.59375 19.640625 C 7.617188 19.394531 7.683594 19.160156 7.785156 19.019531 C 7.875 18.898438 8.121094 18.691406 8.324219 18.5625 C 8.539062 18.433594 8.851562 18.304688 9.019531 18.273438 C 9.1875 18.242188 9.632812 18.21875 9.992188 18.21875 C 10.359375 18.21875 10.878906 18.257812 11.160156 18.304688 C 11.433594 18.351562 11.832031 18.464844 12.046875 18.554688 C 12.253906 18.648438 12.542969 18.851562 12.679688 19.011719 C 12.824219 19.171875 12.976562 19.433594 13.015625 19.59375 C 13.070312 19.808594 13.054688 19.988281 12.976562 20.234375 C 12.910156 20.472656 12.6875 20.800781 12.28125 21.242188 C 11.871094 21.707031 11.726562 21.921875 11.792969 21.957031 C 11.847656 21.980469 12.472656 22.082031 13.175781 22.171875 C 13.878906 22.265625 15.132812 22.441406 15.949219 22.5625 C 16.773438 22.691406 17.46875 22.796875 17.507812 22.796875 C 17.539062 22.796875 17.605469 22.601562 17.660156 22.355469 C 17.714844 22.105469 17.8125 21.539062 17.875 21.089844 C 17.945312 20.640625 18.117188 19.386719 18.265625 18.296875 C 18.410156 17.210938 18.554688 16.289062 18.585938 16.25 C 18.625 16.214844 18.777344 16.25 18.9375 16.328125 C 19.089844 16.410156 19.441406 16.59375 19.707031 16.738281 C 20.105469 16.945312 20.320312 17.007812 20.785156 17.039062 C 21.328125 17.074219 21.382812 17.058594 21.5625 16.878906 C 21.671875 16.769531 21.855469 16.425781 21.984375 16.113281 C 22.121094 15.753906 22.222656 15.34375 22.242188 15 C 22.257812 14.703125 22.238281 14.3125 22.191406 14.128906 C 22.144531 13.9375 21.976562 13.65625 21.800781 13.464844 L 21.496094 13.136719 C 19.769531 13.128906 19.21875 13.09375 19.164062 13.054688 C 19.089844 13.007812 19.066406 12.894531 19.097656 12.671875 C 19.121094 12.503906 19.234375 11.789062 19.347656 11.085938 C 19.464844 10.382812 19.65625 9.054688 19.777344 8.140625 C 19.90625 7.21875 20.007812 6.453125 20.011719 6.429688 C 20.011719 6.410156 19.738281 6.347656 19.410156 6.285156 C 19.074219 6.234375 18.632812 6.15625 18.417969 6.117188 C 18.203125 6.082031 17.628906 5.996094 17.132812 5.925781 C 16.644531 5.859375 15.667969 5.722656 14.964844 5.613281 C 14.253906 5.507812 13.125 5.332031 12.4375 5.226562 C 11.753906 5.125 10.234375 4.898438 9.058594 4.722656 C 7.882812 4.546875 6.226562 4.300781 5.371094 4.171875 C 4.523438 4.050781 3.796875 3.953125 3.765625 3.953125 C 3.734375 3.953125 3.695312 4.042969 3.671875 4.164062 C 3.652344 4.28125 3.574219 4.691406 3.511719 5.074219 Z M 29.667969 9.628906 C 29.761719 9.644531 30.722656 10.230469 31.808594 10.925781 C 32.902344 11.628906 34.046875 12.359375 34.351562 12.574219 C 34.664062 12.78125 35.046875 13.015625 35.207031 13.101562 C 35.480469 13.246094 35.503906 13.246094 35.644531 13.117188 C 35.71875 13.046875 35.917969 12.550781 36.085938 12.015625 C 36.261719 11.4375 36.492188 10.894531 36.644531 10.667969 C 36.789062 10.445312 37.03125 10.214844 37.207031 10.125 C 37.453125 9.996094 37.660156 9.957031 38.140625 9.957031 C 38.675781 9.957031 38.8125 9.988281 39.109375 10.171875 C 39.300781 10.277344 39.613281 10.527344 39.796875 10.710938 C 39.988281 10.894531 40.203125 11.183594 40.289062 11.351562 C 40.363281 11.527344 40.425781 11.773438 40.425781 11.902344 C 40.425781 12.023438 40.386719 12.269531 40.332031 12.4375 C 40.28125 12.605469 40.113281 12.878906 39.957031 13.054688 C 39.804688 13.230469 39.453125 13.519531 39.179688 13.695312 C 38.90625 13.863281 38.539062 14.175781 38.355469 14.367188 C 38.171875 14.566406 38.027344 14.769531 38.027344 14.824219 C 38.027344 14.878906 38.4375 15.183594 38.933594 15.503906 C 39.4375 15.816406 40.859375 16.722656 42.089844 17.519531 C 43.960938 18.714844 44.328125 18.984375 44.296875 19.113281 C 44.28125 19.195312 43.519531 20.433594 42.609375 21.867188 C 41.691406 23.292969 40.882812 24.554688 40.808594 24.660156 C 40.722656 24.765625 40.660156 24.890625 40.660156 24.925781 C 40.660156 24.972656 40.9375 25.050781 41.265625 25.109375 C 41.632812 25.164062 42.113281 25.324219 42.488281 25.5 C 42.882812 25.691406 43.207031 25.902344 43.375 26.09375 C 43.519531 26.261719 43.703125 26.542969 43.777344 26.710938 C 43.863281 26.886719 43.921875 27.207031 43.921875 27.453125 C 43.921875 27.679688 43.863281 28.101562 43.777344 28.382812 C 43.695312 28.65625 43.488281 29.09375 43.320312 29.351562 C 43.152344 29.605469 42.875 29.917969 42.707031 30.046875 C 42.546875 30.167969 42.289062 30.320312 42.136719 30.375 C 41.992188 30.429688 41.671875 30.464844 41.417969 30.472656 C 41.089844 30.472656 40.84375 30.414062 40.484375 30.253906 C 40.21875 30.136719 39.890625 29.917969 39.753906 29.773438 C 39.613281 29.628906 39.324219 29.246094 39.109375 28.925781 C 38.898438 28.605469 38.707031 28.308594 38.691406 28.261719 C 38.683594 28.222656 38.605469 28.238281 38.53125 28.300781 C 38.460938 28.367188 37.773438 29.398438 37.011719 30.589844 C 36.246094 31.785156 35.488281 32.953125 35.328125 33.191406 C 35.160156 33.425781 34.976562 33.625 34.917969 33.640625 C 34.855469 33.65625 34.464844 33.457031 34.0625 33.207031 C 33.65625 32.953125 32.730469 32.375 32.007812 31.910156 C 31.28125 31.449219 30.378906 30.886719 30.003906 30.65625 C 29.632812 30.429688 29.289062 30.238281 29.234375 30.238281 C 29.179688 30.238281 29.074219 30.445312 29.003906 30.6875 C 28.929688 30.933594 28.753906 31.304688 28.605469 31.519531 C 28.460938 31.734375 28.195312 32.015625 28.011719 32.144531 C 27.714844 32.351562 27.628906 32.375 27.085938 32.375 C 26.582031 32.367188 26.414062 32.335938 25.988281 32.121094 C 25.710938 31.992188 25.253906 31.695312 24.980469 31.457031 C 24.703125 31.230469 24.367188 30.894531 24.238281 30.710938 C 24.054688 30.4375 24.007812 30.292969 24.015625 29.976562 C 24.015625 29.726562 24.085938 29.460938 24.199219 29.230469 C 24.300781 29.039062 24.621094 28.644531 24.910156 28.34375 C 25.414062 27.828125 25.4375 27.789062 25.308594 27.675781 C 25.230469 27.605469 24.558594 27.164062 23.816406 26.695312 C 23.070312 26.230469 21.921875 25.492188 21.273438 25.058594 C 20.484375 24.53125 20.109375 24.238281 20.144531 24.171875 C 20.167969 24.117188 20.632812 23.378906 21.175781 22.523438 C 21.71875 21.667969 22.367188 20.625 22.625 20.195312 C 22.878906 19.769531 23.222656 19.21875 23.390625 18.976562 C 23.617188 18.648438 23.742188 18.523438 23.871094 18.523438 C 23.984375 18.53125 24.160156 18.664062 24.359375 18.898438 C 24.535156 19.105469 24.765625 19.507812 24.878906 19.808594 C 24.992188 20.113281 25.183594 20.449219 25.300781 20.570312 C 25.46875 20.730469 25.597656 20.777344 25.835938 20.777344 C 26.09375 20.777344 26.199219 20.722656 26.5 20.449219 C 26.699219 20.265625 27.011719 19.890625 27.195312 19.617188 C 27.371094 19.339844 27.589844 18.898438 27.683594 18.648438 C 27.765625 18.386719 27.859375 17.992188 27.882812 17.753906 C 27.917969 17.433594 27.890625 17.257812 27.789062 17.058594 C 27.722656 16.90625 27.570312 16.746094 27.460938 16.695312 C 27.347656 16.632812 26.941406 16.59375 26.4375 16.59375 C 25.972656 16.59375 25.527344 16.554688 25.445312 16.511719 C 25.359375 16.472656 25.292969 16.359375 25.285156 16.257812 C 25.285156 16.167969 25.476562 15.792969 25.703125 15.425781 C 25.933594 15.070312 26.539062 14.121094 27.050781 13.335938 C 27.5625 12.542969 28.210938 11.535156 28.492188 11.085938 C 28.777344 10.636719 29.121094 10.117188 29.257812 9.933594 C 29.441406 9.683594 29.546875 9.605469 29.667969 9.628906 Z M 29.234375 10.863281 C 28.996094 11.222656 28.25 12.382812 27.570312 13.449219 C 26.886719 14.519531 26.238281 15.527344 26.140625 15.6875 C 25.980469 15.945312 25.964844 16 26.0625 16.054688 C 26.132812 16.089844 26.445312 16.121094 26.765625 16.128906 C 27.179688 16.128906 27.4375 16.175781 27.660156 16.28125 C 27.828125 16.359375 28.058594 16.519531 28.164062 16.632812 C 28.347656 16.824219 28.355469 16.882812 28.355469 17.664062 L 28.355469 18.496094 C 27.757812 19.691406 27.453125 20.152344 27.179688 20.464844 C 26.886719 20.777344 26.582031 21.027344 26.339844 21.140625 C 26.125 21.242188 25.84375 21.316406 25.71875 21.316406 C 25.589844 21.324219 25.367188 21.25 25.230469 21.164062 C 25.09375 21.082031 24.878906 20.882812 24.765625 20.722656 C 24.644531 20.5625 24.460938 20.1875 24.359375 19.898438 C 24.253906 19.609375 24.117188 19.328125 24.0625 19.28125 C 23.984375 19.210938 23.925781 19.226562 23.816406 19.339844 C 23.734375 19.433594 23.039062 20.507812 22.257812 21.753906 C 21.488281 22.988281 20.863281 24.027344 20.863281 24.058594 C 20.863281 24.085938 21.066406 24.269531 21.3125 24.460938 C 21.554688 24.652344 22.214844 25.085938 22.761719 25.4375 C 23.320312 25.789062 24.175781 26.324219 24.664062 26.621094 C 25.164062 26.925781 25.726562 27.285156 25.933594 27.429688 C 26.132812 27.566406 26.300781 27.734375 26.300781 27.796875 C 26.300781 27.863281 26.09375 28.046875 25.851562 28.214844 C 25.605469 28.375 25.269531 28.664062 25.101562 28.855469 C 24.933594 29.039062 24.734375 29.335938 24.65625 29.503906 C 24.582031 29.671875 24.511719 29.917969 24.511719 30.046875 C 24.511719 30.191406 24.589844 30.375 24.726562 30.527344 C 24.839844 30.664062 25.148438 30.953125 25.40625 31.175781 C 25.660156 31.398438 25.996094 31.625 26.140625 31.6875 C 26.292969 31.75 26.589844 31.824219 26.804688 31.863281 C 27.019531 31.902344 27.292969 31.902344 27.421875 31.863281 C 27.554688 31.832031 27.75 31.726562 27.875 31.640625 C 27.988281 31.558594 28.15625 31.335938 28.25 31.152344 C 28.339844 30.96875 28.5 30.582031 28.605469 30.285156 C 28.707031 29.984375 28.835938 29.695312 28.882812 29.636719 C 28.9375 29.582031 29.027344 29.535156 29.097656 29.542969 C 29.15625 29.542969 29.5625 29.765625 29.988281 30.03125 C 30.417969 30.304688 31.496094 30.992188 32.394531 31.574219 C 33.289062 32.144531 34.191406 32.710938 34.390625 32.824219 L 34.765625 33.03125 C 35.46875 31.984375 36.199219 30.839844 36.855469 29.816406 C 37.507812 28.789062 38.117188 27.871094 38.210938 27.78125 C 38.300781 27.679688 38.445312 27.597656 38.53125 27.597656 C 38.613281 27.597656 38.757812 27.679688 38.851562 27.78125 C 38.941406 27.871094 39.058594 28.039062 39.109375 28.148438 C 39.164062 28.253906 39.417969 28.628906 39.667969 28.980469 C 40.058594 29.527344 40.179688 29.648438 40.570312 29.832031 C 40.914062 29.992188 41.113281 30.039062 41.457031 30.023438 C 41.707031 30.015625 42.035156 29.949219 42.195312 29.863281 C 42.359375 29.789062 42.601562 29.589844 42.738281 29.421875 C 42.875 29.253906 43.082031 28.925781 43.199219 28.6875 C 43.304688 28.460938 43.433594 28.054688 43.472656 27.796875 C 43.542969 27.40625 43.527344 27.277344 43.410156 26.988281 C 43.335938 26.789062 43.167969 26.515625 43.039062 26.367188 C 42.90625 26.222656 42.578125 26.003906 42.3125 25.886719 C 42.042969 25.765625 41.664062 25.628906 41.457031 25.582031 C 41.257812 25.539062 40.898438 25.46875 40.660156 25.421875 C 40.433594 25.386719 40.171875 25.292969 40.097656 25.21875 C 40.019531 25.148438 39.957031 25.050781 39.957031 25.003906 C 39.964844 24.964844 40.125 24.683594 40.324219 24.386719 C 40.515625 24.085938 41.242188 22.972656 41.929688 21.90625 C 42.609375 20.835938 43.273438 19.800781 43.394531 19.59375 C 43.519531 19.394531 43.59375 19.195312 43.570312 19.152344 C 43.558594 19.105469 43.25 18.882812 42.898438 18.65625 C 42.539062 18.425781 41.570312 17.808594 40.738281 17.273438 C 39.90625 16.746094 38.949219 16.136719 38.605469 15.929688 C 38.261719 15.71875 37.875 15.449219 37.734375 15.335938 C 37.550781 15.175781 37.484375 15.054688 37.484375 14.886719 C 37.484375 14.726562 37.597656 14.503906 37.859375 14.167969 C 38.101562 13.847656 38.394531 13.589844 38.691406 13.414062 C 38.941406 13.269531 39.316406 12.96875 39.523438 12.757812 C 39.722656 12.542969 39.914062 12.261719 39.9375 12.132812 C 39.972656 11.972656 39.929688 11.78125 39.796875 11.519531 C 39.699219 11.308594 39.492188 11.039062 39.339844 10.925781 C 39.195312 10.8125 38.957031 10.660156 38.820312 10.589844 C 38.683594 10.519531 38.386719 10.460938 38.15625 10.460938 C 37.933594 10.460938 37.628906 10.503906 37.484375 10.558594 C 37.332031 10.621094 37.148438 10.773438 37.046875 10.933594 C 36.957031 11.078125 36.75 11.605469 36.597656 12.09375 C 36.445312 12.582031 36.222656 13.136719 36.101562 13.335938 C 35.980469 13.527344 35.8125 13.734375 35.734375 13.800781 C 35.613281 13.902344 35.558594 13.894531 35.199219 13.6875 C 34.976562 13.566406 34.136719 13.046875 33.328125 12.535156 C 32.511719 12.023438 31.519531 11.382812 31.113281 11.125 C 30.707031 10.863281 30.210938 10.550781 30.011719 10.429688 L 29.652344 10.214844 Z M 29.234375 10.863281 " fill-opacity="1" fill-rule="evenodd"/></g></svg>