<svg xmlns="http://www.w3.org/2000/svg" xmlns:xlink="http://www.w3.org/1999/xlink" width="50" zoomAndPan="magnify" viewBox="0 0 37.5 37.499999" height="50" preserveAspectRatio="xMidYMid meet" version="1.0"><defs><clipPath id="6016febfec"><path d="M 0.554688 0.554688 L 36.453125 0.554688 L 36.453125 36.453125 L 0.554688 36.453125 Z M 0.554688 0.554688 " clip-rule="nonzero"/></clipPath><clipPath id="6eaafe81b6"><path d="M 18.503906 0.554688 C 8.589844 0.554688 0.554688 8.589844 0.554688 18.503906 C 0.554688 28.414062 8.589844 36.453125 18.503906 36.453125 C 28.414062 36.453125 36.453125 28.414062 36.453125 18.503906 C 36.453125 8.589844 28.414062 0.554688 18.503906 0.554688 Z M 18.503906 0.554688 " clip-rule="nonzero"/></clipPath><clipPath id="9fd725223f"><path d="M 8.777344 11.070312 L 30.242188 11.070312 L 30.242188 25.875 L 8.777344 25.875 Z M 8.777344 11.070312 " clip-rule="nonzero"/></clipPath></defs><g clip-path="url(#6016febfec)"><g clip-path="url(#6eaafe81b6)"><path stroke-linecap="butt" transform="matrix(0.740132, 0, 0, 0.740132, 0.555099, 0.555099)" fill="none" stroke-linejoin="miter" d="M 24.250834 -0.000555504 C 10.855833 -0.000555504 -0.00055618 10.855834 -0.00055618 24.250835 C -0.00055618 37.640558 10.855833 48.502226 24.250834 48.502226 C 37.640558 48.502226 48.502225 37.640558 48.502225 24.250835 C 48.502225 10.855834 37.640558 -0.000555504 24.250834 -0.000555504 Z M 24.250834 -0.000555504 " stroke="#000000" stroke-width="4" stroke-opacity="1" stroke-miterlimit="4"/></g></g><g clip-path="url(#9fd725223f)"><path fill="#000000" d="M 10.476562 12.613281 C 10.339844 12.613281 10.226562 12.726562 10.226562 12.863281 L 10.226562 23.980469 C 10.226562 24.121094 10.339844 24.234375 10.476562 24.234375 L 24.453125 24.234375 C 24.589844 24.234375 24.703125 24.121094 24.703125 23.980469 L 24.703125 17.410156 C 24.703125 17.25 24.753906 17.097656 24.84375 16.964844 L 27.972656 12.613281 L 15.46875 12.613281 C 15.054688 12.613281 14.71875 12.273438 14.71875 11.855469 C 14.71875 11.4375 15.054688 11.097656 15.46875 11.097656 L 29.445312 11.097656 C 29.726562 11.097656 29.984375 11.257812 30.109375 11.511719 C 30.238281 11.765625 30.214844 12.070312 30.050781 12.300781 L 26.199219 17.660156 L 26.199219 23.980469 C 26.199219 24.957031 25.417969 25.75 24.453125 25.75 L 10.476562 25.75 C 9.511719 25.75 8.730469 24.957031 8.730469 23.980469 L 8.730469 12.863281 C 8.730469 11.886719 9.511719 11.097656 10.476562 11.097656 L 11.472656 11.097656 C 11.886719 11.097656 12.222656 11.4375 12.222656 11.855469 C 12.222656 12.273438 11.886719 12.613281 11.472656 12.613281 Z M 10.476562 12.613281 " fill-opacity="1" fill-rule="evenodd"/></g><path fill="#000000" d="M 11.722656 16.402344 C 11.722656 15.984375 12.058594 15.644531 12.472656 15.644531 L 22.457031 15.644531 C 22.871094 15.644531 23.203125 15.984375 23.203125 16.402344 C 23.203125 16.820312 22.871094 17.160156 22.457031 17.160156 L 12.472656 17.160156 C 12.058594 17.160156 11.722656 16.820312 11.722656 16.402344 Z M 11.722656 16.402344 " fill-opacity="1" fill-rule="evenodd"/><path fill="#000000" d="M 11.722656 20.445312 C 11.722656 20.023438 12.058594 19.6875 12.472656 19.6875 L 19.460938 19.6875 C 19.875 19.6875 20.210938 20.023438 20.210938 20.445312 C 20.210938 20.863281 19.875 21.203125 19.460938 21.203125 L 12.472656 21.203125 C 12.058594 21.203125 11.722656 20.863281 11.722656 20.445312 Z M 11.722656 20.445312 " fill-opacity="1" fill-rule="evenodd"/></svg>